<svg width="33" height="32" viewBox="0 0 33 32" fill="none" xmlns="http://www.w3.org/2000/svg">
<path d="M16.0019 11.4608C17.254 11.4608 18.3899 11.9691 19.2107 12.7898C20.0312 13.6103 20.5398 14.7465 20.5398 15.9987C20.5398 17.2518 20.0314 18.3867 19.2107 19.2075L19.1651 19.2498C18.3467 20.0459 17.2296 20.5364 16.0022 20.5364C14.7535 20.5364 13.6196 20.028 12.7944 19.2052C11.9716 18.3813 11.4643 17.2474 11.4643 15.9987C11.4643 14.75 11.9726 13.6151 12.7955 12.7899C13.6193 11.9681 14.7532 11.4598 16.0009 11.4598L16.0019 11.4608ZM18.1592 13.8411C17.6073 13.2891 16.8436 12.9469 16.0019 12.9469C15.1578 12.9469 14.3941 13.2881 13.8445 13.8377C13.2916 14.3906 12.9504 15.1533 12.9504 15.9984C12.9504 16.8435 13.2915 17.6072 13.8411 18.1558C14.3941 18.7087 15.1567 19.0499 16.0019 19.0499C16.8291 19.0499 17.5783 18.7232 18.1247 18.1926L18.1592 18.1558C18.7111 17.6039 19.0533 16.8402 19.0533 15.9984C19.0533 15.1557 18.7112 14.3917 18.1592 13.8411ZM28.3819 22.4816L28.1735 22.5877C26.9761 23.1865 25.6068 23.6982 24.1064 24.1018C23.7028 25.6025 23.19 26.9715 22.5912 28.1689L22.4841 28.3797C24.5276 28.7107 26.2404 28.3885 27.3152 27.3137C28.391 26.2379 28.7132 24.5265 28.3822 22.4817L28.3819 22.4816ZM3.6209 9.51744L3.82932 9.41038C5.02566 8.81155 6.39601 8.29984 7.89543 7.89622C8.29906 6.39553 8.81185 5.02651 9.41065 3.82911L9.51772 3.61939C7.47292 3.28938 5.76139 3.61057 4.68663 4.68532C3.6108 5.76115 3.28861 7.47261 3.61963 9.51741L3.6209 9.51744ZM20.172 29.3377L19.9512 29.2651C18.6802 28.8425 17.349 28.2349 16.002 27.459C14.6553 28.2349 13.3239 28.8426 12.0518 29.2651L11.831 29.3377C13.0429 31.0177 14.4801 32 16.0018 32C17.5238 32 18.9607 31.0177 20.1726 29.3377H20.172ZM14.5607 26.5683C13.8071 26.0701 13.0522 25.5202 12.3063 24.9227C11.3565 24.818 10.4344 24.673 9.54912 24.4924C9.88482 25.5928 10.2838 26.6051 10.7364 27.5093C10.8266 27.6911 10.9205 27.8673 11.0151 28.04C11.2046 27.9853 11.3954 27.9262 11.5883 27.8616C12.5472 27.5428 13.546 27.1101 14.5617 26.5693L14.5607 26.5683ZM10.2392 23.121C10.0096 22.9048 9.78221 22.6829 9.55589 22.4566L9.50689 22.4076C9.2951 22.1948 9.08771 21.9817 8.88369 21.7665C8.95498 22.1468 9.03431 22.5201 9.11882 22.8859C9.4846 22.9706 9.85917 23.0498 10.2392 23.121ZM7.07633 19.6927C6.47983 18.9469 5.93129 18.1943 5.43303 17.4418C4.89227 18.4575 4.45854 19.4552 4.13973 20.4152C4.07622 20.6081 4.01607 20.7986 3.96138 20.9884C4.13299 21.0832 4.31031 21.1758 4.49099 21.267C5.3952 21.7197 6.40752 22.1189 7.5069 22.4543C7.32621 21.5681 7.18131 20.6449 7.07553 19.6937L7.07633 19.6927ZM4.54103 16.0001C3.76517 14.6534 3.15854 13.322 2.73494 12.051L2.66365 11.829C0.983583 13.041 4.14152e-06 14.4782 4.14152e-06 15.9999C-0.00232895 17.5219 0.981194 18.96 2.66365 20.172L2.73494 19.9501C3.15749 18.6791 3.76511 17.3479 4.54103 15.9999V16.0001ZM11.8304 2.66232L12.0523 2.73491C13.3233 3.15746 14.6545 3.76507 16.0015 4.541C17.3483 3.76514 18.6796 3.15745 19.9517 2.73491L20.1726 2.66232C18.9606 0.982252 17.5235 0 16.0017 0C14.4797 0 13.0428 0.982252 11.8309 2.66232H11.8304ZM17.4428 5.43168C18.1977 5.92993 18.9513 6.47977 19.6971 7.07731C20.6469 7.18204 21.5691 7.32695 22.4544 7.50764C22.1187 6.40719 21.7197 5.39594 21.2671 4.49173C21.1768 4.31001 21.083 4.13269 20.9884 3.96108C20.7989 4.01578 20.6081 4.07488 20.4152 4.13943C19.4563 4.45829 18.4575 4.89195 17.4428 5.43168ZM21.7642 8.88028C21.9939 9.09648 22.2213 9.31839 22.4476 9.54472L22.4966 9.59371C22.7084 9.80654 22.9158 10.0196 23.1188 10.2348C23.0462 9.8545 22.9694 9.48124 22.8836 9.11544C22.5178 9.03068 22.1433 8.95265 21.7632 8.88032L21.7642 8.88028ZM24.9272 12.3086C25.5237 13.0544 26.0722 13.807 26.5705 14.5596C27.1112 13.5439 27.5449 12.5461 27.8638 11.5861C27.9273 11.3933 27.9874 11.2027 28.0421 11.0143C27.8705 10.9194 27.6942 10.8268 27.5125 10.7356C26.6083 10.283 25.596 9.88268 24.4955 9.54701C24.6772 10.4333 24.8222 11.3565 24.9269 12.3076L24.9272 12.3086ZM27.4625 16.0012C28.2383 17.3479 28.8449 18.6793 29.2675 19.9504L29.3401 20.1723C31.0191 18.9614 32.0024 17.5232 32.0024 16.0025C32.0024 14.4805 31.0201 13.0423 29.3401 11.8304L29.2688 12.0513C28.8462 13.3223 28.2386 14.6535 27.4627 16.0015L27.4625 16.0012ZM28.0411 20.9883C27.9864 20.7998 27.9273 20.608 27.8627 20.4151C27.5439 19.4562 27.1101 18.4585 26.5704 17.4428C26.0722 18.1953 25.5237 18.9489 24.9271 19.6937C24.8224 20.6448 24.6775 21.5679 24.4957 22.4543C25.5951 22.1176 26.6074 21.7183 27.5127 21.2657C27.6934 21.1755 27.8694 21.083 28.0413 20.9881L28.0411 20.9883ZM25.7388 16.0012C25.5403 15.6834 25.3329 15.3658 25.1156 15.0457C25.1245 15.3612 25.1291 15.68 25.1291 16.0012C25.1291 16.3224 25.1247 16.6399 25.1156 16.9567C25.3331 16.6378 25.5416 16.319 25.7399 16.0012H25.7388ZM23.4944 12.894C22.8645 12.1303 22.1811 11.3768 21.4462 10.6385L21.4006 10.5962C20.6504 9.8447 19.881 9.14682 19.1027 8.50574C18.1016 8.40983 17.067 8.3598 16.0044 8.36083C14.9384 8.36187 13.9004 8.41216 12.8959 8.50808C12.1322 9.13802 11.3773 9.82268 10.6392 10.5573L10.597 10.603C9.84673 11.3521 9.14991 12.1202 8.50757 12.8974C8.41166 13.902 8.36163 14.9389 8.36163 16.0025C8.36163 17.0661 8.41295 18.1041 8.50887 19.1097C9.13881 19.8734 9.82215 20.627 10.5571 21.3653L10.6027 21.4075C11.3529 22.159 12.1223 22.8569 12.9005 23.499C13.9028 23.5949 14.9386 23.645 16.0033 23.6439C17.068 23.6439 18.1039 23.5926 19.1061 23.498C19.8698 22.8681 20.6257 22.1847 21.3627 21.4487L21.405 21.4031C22.1552 20.6539 22.852 19.8858 23.4931 19.1087C23.589 18.1041 23.6391 17.0662 23.6391 16.0036C23.6391 14.9399 23.5888 13.9009 23.4918 12.8964L23.4944 12.894ZM16.9576 6.89016C16.6387 6.67267 16.3199 6.4632 16.0021 6.26593C15.6822 6.46554 15.362 6.67396 15.0411 6.89353C15.3589 6.88472 15.6765 6.88005 16.0034 6.87798C16.3267 6.87694 16.6434 6.88135 16.9579 6.89016L16.9576 6.89016ZM14.5604 5.43301C13.5447 4.89225 12.547 4.45959 11.5881 4.14071C11.3952 4.0772 11.2047 4.01705 11.0149 3.96235C10.92 4.13527 10.8264 4.31128 10.7362 4.49301C10.2836 5.39721 9.88438 6.40953 9.54891 7.50998C10.4342 7.32929 11.355 7.18542 12.3051 7.08068C13.0522 6.48185 13.8058 5.93225 14.5606 5.43406L14.5604 5.43301ZM3.96213 11.0143C4.01682 11.2038 4.07593 11.3946 4.14048 11.5875C4.45934 12.5464 4.89305 13.5442 5.43378 14.5599C5.93203 13.8073 6.48054 13.0538 7.07708 12.309C7.18181 11.3578 7.32672 10.4347 7.50845 9.54835C6.40906 9.88509 5.39675 10.2843 4.49254 10.7369C4.31082 10.8271 4.13454 10.921 3.96292 11.0156L3.96213 11.0143ZM6.26568 16.0015C6.46426 16.3193 6.67164 16.6381 6.88888 16.957C6.88007 16.6415 6.8754 16.3226 6.8754 16.0015C6.8754 15.6816 6.87981 15.3627 6.88888 15.046C6.67139 15.3648 6.46296 15.6837 6.26465 16.0015H6.26568ZM15.0456 25.1126C15.3645 25.3311 15.6833 25.5385 16.0022 25.7368C16.3221 25.5372 16.6422 25.3288 16.9631 25.1092C16.6477 25.118 16.3288 25.1227 16.0055 25.1237C15.681 25.1247 15.3621 25.1203 15.0456 25.1115L15.0456 25.1126ZM17.4438 26.5697C18.4595 27.1105 19.4573 27.5431 20.4162 27.862C20.6091 27.9255 20.7996 27.9857 20.9894 28.0404C21.0842 27.8675 21.1778 27.6914 21.268 27.5097C21.7206 26.6055 22.1199 25.5932 22.4553 24.4927C21.57 24.6734 20.6493 24.8183 19.6992 24.9231C18.9521 25.5219 18.1985 26.0715 17.4436 26.5697L17.4438 26.5697ZM7.89804 24.1046C6.39735 23.701 5.02833 23.1893 3.83092 22.5905L3.6212 22.4834C3.29353 24.508 3.60435 26.2063 4.65376 27.2821L4.68824 27.3145C5.76406 28.3903 7.47552 28.7125 9.52032 28.3815L9.41326 28.1718C8.81339 26.9744 8.30166 25.604 7.89804 24.1046ZM24.1081 7.8979C25.6088 8.30152 26.9791 8.81326 28.1752 9.41312L28.3836 9.51915C28.7113 7.49452 28.4005 5.79627 27.3511 4.72044L27.3166 4.68804C26.2408 3.61221 24.5293 3.29002 22.4845 3.62104L22.5916 3.8318C23.1914 5.0292 23.7031 6.39849 24.1068 7.89891L24.1081 7.8979ZM10.2394 8.88115C9.85905 8.95243 9.48579 9.03176 9.11999 9.11627C9.03523 9.48205 8.9572 9.85537 8.88487 10.2356C9.10107 10.006 9.32297 9.77964 9.54825 9.55335L9.59724 9.50435C9.81007 9.29256 10.0242 9.08516 10.2394 8.88115ZM21.7668 23.1208C22.1471 23.0496 22.5203 22.9702 22.8861 22.8857C22.9709 22.5199 23.05 22.1466 23.1212 21.7664C22.905 21.995 22.6842 22.2223 22.4589 22.4476L22.4099 22.4966C22.1971 22.7084 21.9829 22.9169 21.7678 23.1198L21.7668 23.1208Z" fill="#FFFAFF"/>
</svg>
