<svg width="32" height="32" viewBox="0 0 32 32" fill="none" xmlns="http://www.w3.org/2000/svg">
<path d="M15.9998 0C7.17435 0 0 7.17435 0 15.9998C0 20.2429 1.68724 24.3136 4.68746 27.3139C7.68769 30.3142 11.7569 31.9995 15.9996 31.9995C19.3047 31.9971 22.5226 30.9698 25.2142 29.0694L30.6222 31.8928C30.9867 32.0835 31.4329 32.0152 31.7238 31.7242C32.0148 31.4333 32.0831 30.9871 31.8924 30.6226L29.0689 25.2146C30.9694 22.5227 31.9967 19.3048 31.999 16C31.999 11.7569 30.3118 7.68817 27.3116 4.68788C24.3114 1.68765 20.2421 0.000416982 15.9995 0.000416982L15.9998 0ZM15.9998 1.88233C19.7442 1.88233 23.3355 3.36862 25.9828 6.01645C28.6306 8.66428 30.1169 12.2553 30.1169 15.9995C30.1146 19.094 29.0952 22.1013 27.2163 24.56C26.9944 24.8505 26.9605 25.2433 27.1299 25.5674L28.8375 28.8376L25.5673 27.1299C25.2433 26.9605 24.8504 26.9944 24.56 27.2163C22.1013 29.0952 19.094 30.1146 15.9995 30.1169C12.2551 30.1169 8.66581 28.6306 6.01778 25.9828C3.36975 23.335 1.88184 19.7439 1.88184 15.9998C1.88184 8.19216 8.19133 1.88234 15.9993 1.88234L15.9998 1.88233ZM15.9998 4.11759C12.6237 4.11759 9.57156 5.53431 7.40628 7.80318C7.40496 7.80449 7.40391 7.80554 7.4026 7.80686H7.40286C7.40155 7.80738 7.4005 7.80791 7.39919 7.80869C7.38711 7.82182 7.37555 7.83522 7.36426 7.84913C5.35327 9.97858 4.11799 12.8472 4.11799 15.9996C4.11799 19.1563 5.35589 22.0292 7.37159 24.1595C7.38052 24.17 7.38971 24.1805 7.39916 24.1907C7.40021 24.1913 7.40153 24.192 7.40258 24.1926C7.40389 24.1936 7.40494 24.1949 7.40625 24.196C9.57167 26.4649 12.6239 27.8816 15.9997 27.8816C19.3756 27.8816 22.4279 26.4649 24.5932 24.196C24.5945 24.1947 24.5956 24.1936 24.5969 24.1923L24.5966 24.1926C24.5979 24.192 24.599 24.1913 24.6003 24.1907C24.6339 24.1587 24.6654 24.1243 24.6941 24.0878C26.6704 21.9649 27.8815 19.1215 27.8815 15.9998C27.8815 12.8883 26.679 10.0524 24.7143 7.93207C24.6807 7.88637 24.6431 7.84409 24.6022 7.80523C24.5919 7.79709 24.5814 7.78895 24.5707 7.78133C22.4071 5.52557 19.3643 4.11779 15.9993 4.11779L15.9998 4.11759ZM15.9998 5.99991C16.1607 5.99991 16.4081 6.09261 16.7571 6.51645C17.1061 6.94029 17.4864 7.65378 17.8067 8.57343C18.0228 9.19422 18.2125 9.909 18.3711 10.6947C17.6014 10.8828 16.8062 10.9797 15.9998 10.9797C15.1936 10.9797 14.3982 10.8825 13.6285 10.6947C13.7874 9.909 13.9786 9.19426 14.1947 8.57343C14.5151 7.65378 14.8935 6.94031 15.2425 6.51645C15.5915 6.09261 15.8389 5.99991 15.9999 5.99991H15.9998ZM13.0623 6.43557C12.8226 6.89171 12.6101 7.39932 12.4171 7.95393C12.1926 8.59862 11.9967 9.30766 11.8326 10.0697C10.9523 9.66612 10.1309 9.13462 9.39509 8.48703C10.4452 7.56348 11.6894 6.85499 13.0623 6.43557ZM18.9373 6.43741C20.3102 6.85704 21.5562 7.56344 22.6063 8.48699C21.8703 9.13482 21.0475 9.66607 20.167 10.0697C20.0029 9.30762 19.8088 8.59859 19.5843 7.95389C19.3913 7.3998 19.1768 6.89327 18.9373 6.43734V6.43741ZM23.8967 9.85645C25.0346 11.3183 25.7741 13.1056 25.9555 15.0586H20.7368C20.7064 13.9841 20.6234 12.9512 20.4942 11.9778C21.7329 11.4715 22.8847 10.7569 23.8967 9.85645ZM8.10267 9.85829C9.11449 10.7582 10.267 11.4717 11.5052 11.9777C11.376 12.9511 11.293 13.984 11.2625 15.0585H6.04385C6.22504 13.1064 6.96561 11.3196 8.10267 9.85829ZM13.3324 12.5586C14.2 12.7585 15.0944 12.8619 15.9996 12.8619C16.9048 12.8619 17.7995 12.7585 18.6669 12.5586C18.7619 13.3511 18.8273 14.1891 18.8544 15.0586H13.1468C13.1738 14.1891 13.2373 13.3512 13.3324 12.5586ZM6.04374 16.9409H11.2624C11.2929 18.0155 11.3759 19.0483 11.5051 20.0218C10.2669 20.5278 9.11438 21.2413 8.10256 22.1412C6.9655 20.6798 6.22492 18.8931 6.04374 16.9409ZM13.1468 16.9409H18.8544C18.8274 17.8104 18.762 18.6483 18.6669 19.4409C17.7993 19.2411 16.9049 19.1376 15.9997 19.1376C15.0945 19.1376 14.2001 19.2411 13.3324 19.4409C13.2374 18.6484 13.1739 17.8104 13.1468 16.9409ZM20.7366 16.9409H25.9553C25.7741 18.8934 25.0357 20.6815 23.8983 22.1431C22.886 21.2424 21.7329 20.5281 20.4939 20.0218C20.6231 19.0483 20.7062 18.0155 20.7366 16.9409ZM15.9996 21.0199C16.8055 21.0199 17.6014 21.1171 18.3708 21.3049C18.2122 22.0906 18.0226 22.8053 17.8065 23.4262C17.4861 24.3458 17.1059 25.0593 16.7569 25.4832C16.4079 25.907 16.1605 25.9997 15.9995 25.9997C15.8386 25.9997 15.5912 25.907 15.2422 25.4832C14.8932 25.0593 14.5148 24.3458 14.1944 23.4262C13.9783 22.8054 13.7871 22.0906 13.6282 21.3049C14.3979 21.1171 15.1933 21.0199 15.9995 21.0199H15.9996ZM11.8324 21.9298C11.9965 22.6919 12.1924 23.4009 12.4169 24.0456C12.6102 24.6003 12.8224 25.1079 13.0621 25.564C11.6892 25.1446 10.445 24.4362 9.39489 23.5125C10.1307 22.865 10.9521 22.3335 11.8324 21.9298ZM20.167 21.9298C21.0473 22.3335 21.8705 22.865 22.6063 23.5125C21.5562 24.4361 20.3102 25.1428 18.9373 25.5621C19.1768 25.1062 19.3913 24.5997 19.5843 24.0456C19.8088 23.4009 20.0029 22.6918 20.167 21.9298V21.9298Z" fill="#FFFAFF"/>
</svg>
