<svg width="31" height="32" viewBox="0 0 31 32" fill="none" xmlns="http://www.w3.org/2000/svg">
<path d="M23.2324 30.0188H30.7345V31.9997H23.2324V30.0188Z" fill="#FFFAFF"/>
<path d="M16.2849 18.7124H22.3748V16.0915C22.3748 15.6243 22.5425 15.1924 22.8065 14.847V12.998H24.8381V14.1511C25.2445 14.2629 25.6 14.4965 25.8539 14.8215V12.998H27.8855V17.1884H26.2856V17.5642C26.9001 17.5846 27.4487 17.8944 27.7889 18.3616C27.8904 18.3464 27.9921 18.3361 28.0936 18.3361C28.1596 18.3361 28.2257 18.3412 28.2917 18.3462C28.5253 18.3716 28.7385 18.4427 28.9417 18.5442C29.2212 18.3614 29.404 18.0515 29.404 17.6961L29.4045 1.01582C29.4045 0.457175 28.9474 0 28.3887 0H16.2844C15.7257 0 15.2686 0.457157 15.2686 1.01582V17.6961C15.2686 18.255 15.7257 18.7121 16.2844 18.7121L16.2849 18.7124ZM21.8316 17.1887H19.8V15.5785H21.8316V17.1887ZM21.8316 14.5627H19.8L19.7997 12.9525H21.8314L21.8316 14.5627ZM21.8316 11.9366H19.8V10.3264H21.8316V11.9366ZM21.8316 9.31577H19.8V7.70557H21.8316V9.31577ZM24.8385 11.9366H22.8069V10.3264H24.8385V11.9366ZM24.8385 9.31577H22.8069V7.70557H24.8385V9.31577ZM27.8911 11.9366H25.8594V10.3264H27.8911V11.9366ZM27.8911 9.31577H25.8594V7.70557H27.8911V9.31577ZM16.793 1.52399H27.8911V6.26299L16.793 6.26276V1.52399ZM16.793 7.70546H18.8247V9.31565H16.793V7.70546ZM16.793 10.3315H18.8247L18.8249 11.9365H16.7933L16.793 10.3315ZM16.793 12.9523H18.8247V14.5625H16.793V12.9523ZM16.793 15.5784H18.8247V17.1886H16.793V15.5784Z" fill="white"/>
<path d="M4.16492 26.8191H0L5.18097 32.0001V27.8351C5.18097 27.2763 4.72382 26.8191 4.16492 26.8191Z" fill="white"/>
<path d="M7.1414 9.21387L3.9668 14.913L7.1414 12.729V9.21387Z" fill="white"/>
<path d="M4.55176 15.7461H10.7488L7.65039 13.6128L4.55176 15.7461Z" fill="white"/>
<path d="M8.15723 12.729L11.3267 14.913L8.15723 9.21387V12.729Z" fill="white"/>
<path d="M14.2527 17.6966V5.22168H1.01582C0.457175 5.22168 0 5.67884 0 6.2375V25.8032H4.16492C5.28735 25.8032 6.19655 26.7124 6.19655 27.8348V31.9997L18.6157 31.9999C19.1744 31.9999 19.6316 31.5428 19.6316 30.9841V19.7281H16.2844C15.1619 19.7281 14.2527 18.814 14.2527 17.6964V17.6966ZM9.87945 6.74579H12.6528C12.9322 6.74579 13.1607 6.97426 13.1607 7.2537C13.1607 7.53314 12.9322 7.7616 12.6528 7.7616H9.87945C9.60001 7.7616 9.37155 7.53314 9.37155 7.2537C9.37155 6.97426 9.60001 6.74579 9.87945 6.74579ZM2.24511 6.74579H5.01844C5.29789 6.74579 5.52635 6.97426 5.52635 7.2537C5.52635 7.53314 5.29789 7.7616 5.01844 7.7616H2.24511C1.96566 7.7616 1.7372 7.53314 1.7372 7.2537C1.7372 6.97426 1.96566 6.74579 2.24511 6.74579ZM4.63239 23.5889H2.60075V21.5572H4.63239V23.5889ZM4.63239 20.5008H2.60075V18.4691H4.63239V20.5008ZM2.64122 16.7624C2.4635 16.7624 2.29584 16.6658 2.2044 16.5136C2.11298 16.3611 2.11298 16.1682 2.19926 16.0108L3.63155 13.4355V9.55496H2.24512C1.96567 9.55496 1.73721 9.32649 1.73721 9.04705C1.73721 8.76761 1.96567 8.53915 2.24512 8.53915H4.13452C4.41396 8.53915 4.64242 8.76761 4.64242 9.04705V11.6069L7.20228 7.01009C7.38001 6.69019 7.90825 6.69019 8.09113 7.01009L10.2549 10.9007V9.05172C10.2549 8.77228 10.4833 8.54382 10.7628 8.54382H12.6522C12.9316 8.54382 13.1601 8.77228 13.1601 9.05172C13.1601 9.33116 12.9316 9.55962 12.6522 9.55962H11.2707V12.7291L13.0993 16.0154C13.1856 16.1728 13.1856 16.366 13.0942 16.5182C13.0027 16.6707 12.8351 16.767 12.6573 16.767L2.64105 16.7675L2.64122 16.7624ZM13.2927 23.0809H6.27312C5.99367 23.0809 5.76521 22.8525 5.76521 22.573C5.76521 22.2936 5.99367 22.0651 6.27312 22.0651H13.2975C13.5769 22.0651 13.8054 22.2936 13.8054 22.573C13.8054 22.8525 13.5769 23.0809 13.2923 23.0809H13.2927ZM5.76488 19.485C5.76488 19.2055 5.99334 18.9771 6.27278 18.9771H10.5598C10.8392 18.9771 11.0677 19.2055 11.0677 19.485C11.0677 19.7644 10.8392 19.9929 10.5598 19.9929H6.27302C5.98844 19.9929 5.76488 19.7642 5.76488 19.485Z" fill="white"/>
<path d="M30.0903 20.0478C29.5265 19.992 29.049 20.4339 29.049 20.9874V20.3525C29.049 19.8598 28.6935 19.4078 28.2057 19.362C27.6419 19.3061 27.1644 19.7481 27.1644 20.3015V19.5245C27.1644 18.9708 26.6869 18.5291 26.1231 18.585C25.6304 18.6357 25.2799 19.0828 25.2799 19.5755V16.0352C25.2799 15.4814 24.8024 15.0397 24.2385 15.0956C23.7458 15.1463 23.3953 15.5934 23.3953 16.0862V23.7205C23.3953 23.9999 23.1669 24.2284 22.8874 24.2284C22.608 24.2284 22.3795 23.9999 22.3795 23.7205V21.836C22.0596 21.9223 21.8057 22.2017 21.8057 22.542V22.552V24.538C21.8057 24.8734 21.9123 25.2033 22.1054 25.4776L22.7606 26.397C23.3144 27.1741 23.6801 28.0681 23.8323 29.0027H30.0701V28.9164C30.0701 28.2561 30.1767 27.6008 30.3799 26.976L30.6287 26.209C30.8319 25.5842 30.9385 24.929 30.9385 24.2686V21.0433C30.9336 20.5457 30.5782 20.0988 30.0904 20.0481L30.0903 20.0478Z" fill="white"/>
</svg>
