<svg width="32" height="32" viewBox="0 0 32 32" fill="none" xmlns="http://www.w3.org/2000/svg">
<path d="M29.6668 27.3335H29.3334V2.00009C29.3334 0.86667 28.4667 0 27.3333 0C26.1998 0 25.3332 0.86667 25.3332 2.00009V6.66668H22.5999C22.3332 5.53326 21.2666 4.66659 19.9999 4.66659C19.0665 4.66659 18.2666 5.13329 17.7332 5.86649C17.5999 6.13321 17.4664 6.3332 17.3999 6.66643H14.5332C14.2665 5.53301 13.1998 4.66634 11.9332 4.66634C10.9998 4.66634 10.1998 5.13305 9.66639 5.86624C9.53316 6.13297 9.39967 6.33295 9.33317 6.66618H6.73316H6.59992V2.00009C6.59992 0.86667 5.73325 0 4.59983 0C3.5334 0 2.66673 0.86667 2.66673 2.00009V27.3335H2.33326C1.06662 27.3335 0 28.4001 0 29.6667C0 30.9334 1.06662 32 2.33326 32H29.6668C30.9334 32 32.0001 30.9334 32.0001 29.6667C32.0001 28.4001 30.9335 27.3335 29.6668 27.3335ZM6.66663 7.99992H6.79987H9.39988C9.6666 9.13334 10.7333 10 11.9999 10C12.9333 10 13.7332 9.5333 14.1999 8.80011C14.3999 8.53338 14.4667 8.26666 14.5332 8.00017H17.3999C17.6666 9.13359 18.7333 10.0003 19.9999 10.0003C20.9333 10.0003 21.7333 9.53355 22.2 8.80035C22.4 8.53363 22.4667 8.26691 22.5332 8.00042L25.3334 7.99993V13.3332H18.6C18.3333 12.1998 17.2666 11.3331 16 11.3331C14.7333 11.3331 13.7332 12.1998 13.4 13.3332H6.66656L6.66663 7.99992ZM6.66663 14.6665H13.4C13.6668 15.7999 14.7334 16.6666 16.0001 16.6666C17.2667 16.6666 18.2668 15.7999 18.6001 14.6665H25.3335V19.9997H22.6002C22.3335 18.8663 21.2669 17.9996 20.0002 17.9996C18.7336 17.9996 17.7335 18.8663 17.4002 19.9997H17.267H14.6002H14.5335C14.2668 18.8663 13.2001 17.9996 11.9335 17.9996C10.6668 17.9996 9.66671 18.8663 9.33348 19.9997H6.86668H6.53346V14.6665H6.66663ZM6.66663 21.333H6.99985H9.46665C9.73337 22.4664 10.8 23.3331 12.0667 23.3331C13.3333 23.3331 14.3334 22.4664 14.6667 21.333H14.7334H17.4002H17.5334C17.8001 22.4664 18.8668 23.3996 20.1334 23.3996C21.4 23.3996 22.4002 22.5329 22.7334 21.3995L25.3334 21.3998V27.3997H6.66658L6.66663 21.333Z" fill="#FFFAFF"/>
</svg>
