<svg width="33" height="36" viewBox="0 0 33 36" fill="none" xmlns="http://www.w3.org/2000/svg">
<path d="M32 18C32 17.4936 32.2009 16.4319 32 16C30.6598 11.6448 23.925 12.2124 15 12C13.5078 11.9648 14.4763 9.89608 15 6C15.3408 3.46604 13.7265 0 11 0C6.50453 0 10.9748 3.16687 7 12C4.87619 16.7196 0 14.2593 0 19V30C0 31.8454 0.423449 33.708 3 34C5.49759 34.2829 4.39703 36 8 36H26C27.837 36 30 34.8504 30 33C30 32.2329 29.4308 31.5658 29 31C30.0194 30.4252 31 29.2584 31 28C31 27.2349 30.4298 26.5648 30 26C31.0224 25.4262 32 24.2604 32 23C32 22.0849 31.5927 20.6071 31 20C31.7566 19.3849 32 19.053 32 18Z" fill="#7D2870"/>
<g opacity="0.1">
<path d="M21 21H29C30.1597 21 31.4073 20.0345 32 19C32.2438 18.5737 32.4123 18.2537 32 18C31.5887 17.7463 30.2448 17.5737 30 18C29.7195 18.4921 29.5501 19 29 19H20C19.1347 19 19 17.8968 19 17C19 16.1032 19.1347 16 20 16H26C26.4787 16 27 15.4962 27 15C27 14.5038 26.4787 14 26 14H20C18.1782 14 17 15.1119 17 17C17 18.053 17.2764 19.3713 18 20C17.3904 20.6215 17 21.0467 17 22C17 23.056 17.2725 24.3723 18 25C17.3944 25.6205 17 27.0487 17 28C17 29.1505 18.1575 29.3785 19 30C18.4806 30.6051 18 32.1289 18 33C18 34.8881 19.1782 36 21 36H27C28.1597 36 29.4073 35.0345 30 34C30.2448 33.5737 29.4113 33.2537 29 33C28.5877 32.7483 28.2438 32.5737 28 33C27.7175 33.4921 27.5501 34 27 34H21C20.1347 34 20 33.8968 20 33C20 32.1032 20.1347 31 21 31H28C29.1597 31 30.4083 30.0345 31 29C31.2448 28.5727 30.4113 28.2527 30 28C29.5847 27.7422 29.2428 27.5737 29 28C28.7135 28.5003 28.559 29 28 29H21C20.1347 29 19 28.8968 19 28C19 27.1032 20.1347 26 21 26H29C30.1597 26 31.4073 25.0345 32 24C32.2448 23.5737 31.4113 23.2537 31 23C30.5867 22.7473 30.2438 22.5737 30 23C29.7135 23.4993 29.559 24 29 24H21C20.1347 24 19 22.8968 19 22C19 21.1032 20.1337 21 21 21Z" fill="#87327A"/>
</g>
</svg>
